<svg xmlns="http://www.w3.org/2000/svg" viewBox="0 0 394.62 100.29" width="394" height="100"><g fill="#4D4D4F"><path d="M91.92 21.72V.24h2.76v21.48h-2.76zM101.16 7.02v2.04h.12c.4-.7 1.03-1.29 1.89-1.78.86-.49 1.78-.74 2.76-.74 1.82 0 3.21.56 4.17 1.68.96 1.12 1.44 2.62 1.44 4.5v9h-2.76v-8.58c0-2.72-1.21-4.08-3.63-4.08-1.14 0-2.07.46-2.79 1.37s-1.08 1.96-1.08 3.17v8.13h-2.76V7.02h2.64zM120.39 21.96c-1.54 0-2.71-.41-3.52-1.23-.81-.82-1.22-1.98-1.22-3.48V9.54h-2.58V7.02h2.58v-4.5h2.76v4.5h3.6v2.52h-3.6v7.5c0 1.6.66 2.4 1.98 2.4.5 0 .92-.08 1.26-.24l.96 2.37c-.6.26-1.34.39-2.22.39zM127.41 21.72h-2.76V7.02h2.64v2.4h.12c.28-.8.85-1.46 1.73-1.98s1.71-.78 2.54-.78c.82 0 1.51.12 2.07.36L132.7 9.6c-.36-.14-.85-.21-1.47-.21-1 0-1.89.4-2.65 1.19-.77.79-1.16 1.83-1.16 3.1v8.04zM136.08 8.78c1.42-1.49 3.23-2.24 5.43-2.24 2.2 0 4.01.75 5.43 2.24 1.42 1.49 2.13 3.35 2.13 5.59 0 2.24-.71 4.11-2.13 5.6-1.42 1.49-3.23 2.23-5.43 2.23-2.2 0-4.01-.74-5.43-2.23s-2.13-3.35-2.13-5.6c0-2.24.71-4.1 2.13-5.59zm2.06 9.45c.95.97 2.07 1.46 3.38 1.46 1.3 0 2.42-.48 3.38-1.46.95-.97 1.43-2.25 1.43-3.85s-.48-2.88-1.43-3.85c-.95-.97-2.08-1.46-3.38-1.46-1.3 0-2.43.49-3.38 1.46-.95.97-1.42 2.26-1.42 3.85-.01 1.59.47 2.88 1.42 3.85zM157.59 22.2c-1.9 0-3.54-.75-4.92-2.25s-2.07-3.36-2.07-5.58.69-4.08 2.07-5.58 3.02-2.25 4.92-2.25c1.12 0 2.12.24 3.02.72.89.48 1.55 1.08 1.99 1.8h.12l-.12-2.04V.24h2.76v21.48h-2.64v-2.04h-.12c-.44.72-1.1 1.32-1.99 1.8-.89.48-1.9.72-3.02.72zm.45-2.52c1.3 0 2.4-.48 3.32-1.44.91-.96 1.36-2.25 1.36-3.87s-.46-2.91-1.36-3.87c-.91-.96-2.02-1.44-3.32-1.44-1.28 0-2.38.49-3.3 1.46-.92.97-1.38 2.26-1.38 3.85 0 1.6.46 2.89 1.38 3.85.92.98 2.02 1.46 3.3 1.46zM181.62 21.72h-2.64v-2.04h-.12c-.42.7-1.06 1.3-1.92 1.79s-1.77.73-2.73.73c-1.84 0-3.24-.56-4.19-1.68-.95-1.12-1.42-2.62-1.42-4.5v-9h2.76v8.55c0 2.74 1.21 4.11 3.63 4.11 1.14 0 2.07-.46 2.79-1.38.72-.92 1.08-1.98 1.08-3.18v-8.1h2.76v14.7zM191.55 22.2c-2.2 0-4.01-.74-5.43-2.23s-2.13-3.35-2.13-5.6c0-2.24.71-4.1 2.13-5.59 1.42-1.49 3.23-2.24 5.43-2.24 1.64 0 3 .4 4.08 1.2 1.08.8 1.87 1.81 2.37 3.03l-2.52 1.05c-.76-1.84-2.13-2.76-4.11-2.76-1.22 0-2.3.5-3.23 1.5-.93 1-1.4 2.27-1.4 3.81s.46 2.81 1.4 3.81c.93 1 2 1.5 3.23 1.5 2.06 0 3.48-.92 4.26-2.76l2.46 1.05c-.5 1.2-1.31 2.21-2.42 3.02s-2.48 1.21-4.12 1.21zM203.49 3.33c-.38.38-.84.57-1.38.57s-1-.19-1.38-.57c-.38-.38-.57-.84-.57-1.38s.19-1 .57-1.38.84-.57 1.38-.57 1 .19 1.38.57c.38.38.57.84.57 1.38s-.19 1-.57 1.38zm0 18.39h-2.76V7.02h2.76v14.7zM209.73 7.02v2.04h.12c.4-.7 1.03-1.29 1.89-1.78.86-.49 1.78-.74 2.76-.74 1.82 0 3.21.56 4.17 1.68.96 1.12 1.44 2.62 1.44 4.5v9h-2.76v-8.58c0-2.72-1.21-4.08-3.63-4.08-1.14 0-2.07.46-2.79 1.37s-1.08 1.96-1.08 3.17v8.13h-2.76V7.02h2.64zM229.59 28.68c-1.74 0-3.16-.44-4.26-1.31-1.1-.87-1.89-1.86-2.37-2.98l2.52-1.05c.28.8.79 1.47 1.54 2.01s1.6.81 2.56.81c1.52 0 2.72-.46 3.58-1.36.87-.91 1.31-2.15 1.31-3.71v-1.41h-.12c-.48.72-1.16 1.32-2.04 1.8-.88.48-1.87.72-2.97.72-1.9 0-3.54-.75-4.92-2.25s-2.07-3.36-2.07-5.58.69-4.08 2.07-5.58 3.02-2.25 4.92-2.25c1.1 0 2.09.24 2.97.72s1.56 1.08 2.04 1.8h.12V7.02h2.64v13.95c0 2.52-.73 4.44-2.19 5.75-1.45 1.3-3.23 1.96-5.33 1.96zm.21-9c1.3 0 2.4-.48 3.32-1.44.91-.96 1.36-2.25 1.36-3.87s-.46-2.91-1.36-3.87c-.91-.96-2.02-1.44-3.32-1.44-1.28 0-2.38.49-3.3 1.46-.92.97-1.38 2.26-1.38 3.85 0 1.6.46 2.89 1.38 3.85.92.98 2.02 1.46 3.3 1.46zM250.62 21.72h-2.76V.24h7.32c1.82 0 3.39.6 4.73 1.81 1.33 1.21 2 2.74 2 4.58 0 1.84-.67 3.37-2 4.57-1.33 1.21-2.91 1.81-4.73 1.81h-4.56v8.71zm0-11.34h4.62c1.16 0 2.09-.39 2.79-1.17.7-.78 1.05-1.64 1.05-2.58s-.35-1.8-1.05-2.58c-.7-.78-1.63-1.17-2.79-1.17h-4.62v7.5zM266.85 3.33c-.38.38-.84.57-1.38.57s-1-.19-1.38-.57c-.38-.38-.57-.84-.57-1.38s.19-1 .57-1.38.84-.57 1.38-.57 1 .19 1.38.57c.38.38.57.84.57 1.38s-.19 1-.57 1.38zm0 18.39h-2.76V7.02h2.76v14.7zM282.69 21.72h-3.24l-3.63-5.43-3.57 5.43h-3.24l5.19-7.47-5.07-7.23h3.12l3.63 5.19 3.45-5.19h3.24l-5.13 7.23 5.25 7.47zM290.67 22.2c-2.22 0-4.02-.74-5.42-2.22-1.39-1.48-2.08-3.35-2.08-5.61 0-2.14.68-3.98 2.03-5.52 1.35-1.54 3.07-2.31 5.17-2.31 2.18 0 3.92.71 5.23 2.13 1.31 1.42 1.97 3.32 1.97 5.7l-.03.51h-11.61c.08 1.48.57 2.65 1.48 3.51.91.86 1.98 1.29 3.19 1.29 1.98 0 3.32-.84 4.02-2.52l2.46 1.02c-.48 1.14-1.27 2.1-2.37 2.87-1.09.76-2.44 1.15-4.04 1.15zm3.96-9.6c-.06-.84-.45-1.64-1.15-2.4-.71-.76-1.77-1.14-3.17-1.14-1.02 0-1.9.32-2.65.96-.75.64-1.27 1.5-1.55 2.58h8.52zM302.7 21.72h-2.76V.24h2.76v21.48z"/></g><g fill="#4D4D4F"><path d="M4.97 86.79H0V48.13h13.18c3.28 0 6.11 1.09 8.5 3.27 2.39 2.18 3.59 4.92 3.59 8.23 0 3.31-1.2 6.06-3.59 8.24-2.39 2.18-5.23 3.27-8.5 3.27H4.97v15.65zm0-20.41h8.32c2.09 0 3.76-.7 5.02-2.11s1.89-2.95 1.89-4.64c0-1.69-.63-3.24-1.89-4.64s-2.93-2.11-5.02-2.11H4.97v13.5zM33.75 48.13v12.2L33.53 64h.22c.72-1.26 1.85-2.33 3.4-3.21 1.55-.88 3.2-1.32 4.97-1.32 3.28 0 5.78 1.01 7.51 3.02 1.73 2.02 2.59 4.72 2.59 8.1v16.2h-4.97V71.35c0-4.9-2.18-7.34-6.53-7.34-2.05 0-3.73.82-5.02 2.46-1.3 1.64-1.94 3.54-1.94 5.7V86.8h-4.97V48.13h4.96zM59.83 63.49c2.56-2.68 5.81-4.02 9.77-4.02s7.22 1.34 9.77 4.02c2.56 2.68 3.83 6.04 3.83 10.07s-1.28 7.39-3.83 10.07c-2.56 2.68-5.81 4.02-9.77 4.02s-7.22-1.34-9.77-4.02C57.27 80.96 56 77.6 56 73.57c0-4.04 1.27-7.39 3.83-10.08zm3.7 17.01c1.71 1.75 3.73 2.62 6.08 2.62 2.34 0 4.36-.87 6.07-2.62s2.57-4.06 2.57-6.94-.86-5.19-2.57-6.94S71.95 64 69.61 64c-2.34 0-4.37.87-6.08 2.62s-2.57 4.06-2.57 6.94.86 5.2 2.57 6.94zM91.96 60.33V64h.22c.72-1.26 1.85-2.33 3.4-3.21 1.55-.88 3.2-1.32 4.97-1.32 3.28 0 5.78 1.01 7.51 3.02 1.73 2.02 2.59 4.72 2.59 8.1v16.2h-4.97V71.35c0-4.9-2.18-7.34-6.53-7.34-2.05 0-3.73.82-5.02 2.46-1.3 1.64-1.94 3.54-1.94 5.7V86.8h-4.97V60.33h4.74zM127.92 87.66c-4 0-7.25-1.33-9.75-4-2.5-2.66-3.75-6.03-3.75-10.1 0-3.85 1.21-7.16 3.64-9.94 2.43-2.77 5.54-4.16 9.32-4.16 3.92 0 7.06 1.28 9.42 3.83 2.36 2.56 3.54 5.98 3.54 10.26l-.05.92h-20.9c.14 2.66 1.03 4.77 2.67 6.32 1.64 1.55 3.55 2.32 5.75 2.32 3.56 0 5.98-1.51 7.24-4.54l4.43 1.84c-.86 2.05-2.29 3.77-4.27 5.16s-4.41 2.09-7.29 2.09zm7.13-17.28c-.11-1.51-.8-2.95-2.08-4.32s-3.18-2.05-5.7-2.05c-1.84 0-3.43.58-4.78 1.73s-2.28 2.7-2.78 4.64h15.34z"/></g><g fill="#4D4D4F"><path d="M170.75 87.66c-2.02 0-3.83-.43-5.43-1.3s-2.8-1.94-3.59-3.24h-.22v3.67h-4.75V48.13h4.97v12.2l-.22 3.67h.22c.79-1.3 1.99-2.38 3.59-3.24 1.6-.86 3.41-1.3 5.43-1.3 3.42 0 6.37 1.35 8.86 4.05 2.48 2.7 3.73 6.05 3.73 10.04s-1.24 7.34-3.73 10.04-5.44 4.07-8.86 4.07zm-.81-4.54c2.3 0 4.28-.87 5.94-2.62 1.66-1.75 2.48-4.06 2.48-6.94s-.83-5.19-2.48-6.94c-1.66-1.75-3.64-2.62-5.94-2.62-2.34 0-4.33.86-5.97 2.59-1.64 1.73-2.46 4.05-2.46 6.97s.82 5.24 2.46 6.97c1.64 1.73 3.62 2.59 5.97 2.59zM193.32 98.46h-5.13l6.16-13.34-10.91-24.79h5.4l7.88 19.01h.11l7.67-19.01h5.4l-16.58 38.13z"/></g><g fill="#4D4D4F"><path d="M244.94 87.64c-12.05 0-22.19-9.82-22.19-21.87s10.14-21.87 22.19-21.87c6.67 0 11.42 2.62 14.99 6.03l-4.21 4.21c-2.56-2.4-6.03-4.27-10.77-4.27-8.8 0-15.68 7.09-15.68 15.89s6.88 15.89 15.68 15.89c5.71 0 8.96-2.29 11.04-4.37 1.71-1.71 2.83-4.16 3.25-7.52H245V63.8h20.05c.21 1.07.32 2.35.32 3.73 0 4.48-1.23 10.03-5.17 13.97-3.84 4.01-8.75 6.14-15.26 6.14M289.29 73.56c0-5.07-3.67-8.53-7.92-8.53s-7.93 3.47-7.93 8.53c0 5.01 3.67 8.53 7.93 8.53 4.25.01 7.92-3.51 7.92-8.53m6.17 0c0 8.11-6.33 14.08-14.09 14.08-7.77 0-14.09-5.97-14.09-14.08 0-8.16 6.33-14.08 14.09-14.08s14.09 5.92 14.09 14.08M320.23 73.56c0-5.07-3.68-8.53-7.95-8.53s-7.95 3.47-7.95 8.53c0 5.01 3.68 8.53 7.95 8.53s7.95-3.51 7.95-8.53m6.18 0c0 8.11-6.35 14.08-14.13 14.08s-14.13-5.97-14.13-14.08c0-8.16 6.35-14.08 14.13-14.08s14.13 5.92 14.13 14.08M350.48 73.62c0-4.96-3.31-8.59-7.52-8.59-4.26 0-7.84 3.63-7.84 8.59 0 4.91 3.57 8.48 7.84 8.48 4.21 0 7.52-3.58 7.52-8.48m5.44-13.28v25.28c0 10.4-6.13 14.67-13.39 14.67-6.83 0-10.94-4.59-12.48-8.32l5.39-2.24c.96 2.29 3.31 5.01 7.1 5.01 4.64 0 7.52-2.88 7.52-8.27v-2.02h-.21c-1.39 1.71-4.05 3.2-7.41 3.2-7.04 0-13.48-6.14-13.48-14.03 0-7.95 6.44-14.14 13.48-14.14 3.36 0 6.03 1.5 7.41 3.15h.21v-2.29h5.86z"/></g><path fill="#4D4D4F" d="M359.71 45.57h6.15v41.22h-6.15zM374.78 73.14l12.59-5.23c-.69-1.76-2.77-2.99-5.23-2.99-3.15 0-7.52 2.78-7.36 8.22m14.78 5.06l4.8 3.2c-1.55 2.29-5.28 6.24-11.73 6.24-8 0-13.97-6.19-13.97-14.08 0-8.38 6.02-14.08 13.28-14.08 7.31 0 10.88 5.81 12.06 8.96l.64 1.6-18.83 7.79c1.44 2.83 3.68 4.27 6.83 4.27s5.32-1.55 6.92-3.9"/></svg>
